<?xml version="1.0" ?><svg style="enable-background:new 0 0 447.747 451.189;" version="1.1" viewBox="0 0 447.747 451.189" xml:space="preserve" xmlns="http://www.w3.org/2000/svg" xmlns:xlink="http://www.w3.org/1999/xlink"><g id="Mug"><path d="M63.185,20.887c0,0-42.794,325.739,263.424,327.496l-6.953,74.692l-247.735,9.77   c-28.489,1.318-52.139-21.761-51.519-50.274L20.391,20.887H63.185z" style="fill:#C9711A;"/><path d="M433.69,88.328h-85.918v-74.27C347.771,6.294,341.477,0,333.714,0H14.057C6.294,0,0,6.294,0,14.057   v353.238c0,46.259,37.635,83.894,83.89,83.894h179.991c46.256,0,83.89-37.635,83.89-83.894v-87.154h37.154   c34.638,0,62.822-28.183,62.822-62.825V102.385C447.747,94.618,441.453,88.328,433.69,88.328z M319.657,367.296   c0,30.757-25.022,55.779-55.776,55.779H83.89c-30.754,0-55.776-25.022-55.776-55.779V28.114h291.543V367.296z M419.633,217.317   c0,19.14-15.571,34.711-34.707,34.711h-37.154V116.442h71.861V217.317z" style="fill:#352517;"/><path d="M173.889,327.509c27.222,0,52.814-10.598,72.064-29.851c19.246-19.246,29.848-44.842,29.844-72.064   c0-56.194-45.717-101.915-101.911-101.915S71.974,169.397,71.974,225.595l0,0C71.978,281.789,117.698,327.509,173.889,327.509z    M173.886,151.794c40.692,0,73.797,33.104,73.797,73.8c0,19.713-7.674,38.245-21.611,52.186   c-13.941,13.941-32.47,21.614-52.183,21.614c-40.689,0-73.797-33.108-73.8-73.8C100.089,184.899,133.193,151.794,173.886,151.794z" style="fill:#352517;"/></g><g id="Layer_1"/></svg>