<?xml version="1.0" encoding="UTF-8" standalone="no"?>
<svg
   width="30.09222mm"
   height="31.167919mm"
   viewBox="0 0 85.300783 88.350007"
   version="1.1"
   id="svg10"
   sodipodi:docname="dvgw-sc-logo.svg"
   inkscape:version="1.3.2 (091e20e, 2023-11-25, custom)"
   xmlns:inkscape="http://www.inkscape.org/namespaces/inkscape"
   xmlns:sodipodi="http://sodipodi.sourceforge.net/DTD/sodipodi-0.dtd"
   xmlns="http://www.w3.org/2000/svg"
   xmlns:svg="http://www.w3.org/2000/svg">
  <sodipodi:namedview
     id="namedview10"
     pagecolor="#ffffff"
     bordercolor="#666666"
     borderopacity="1.0"
     inkscape:showpageshadow="2"
     inkscape:pageopacity="0.0"
     inkscape:pagecheckerboard="0"
     inkscape:deskcolor="#d1d1d1"
     inkscape:document-units="mm"
     inkscape:zoom="4.6930397"
     inkscape:cx="73.619662"
     inkscape:cy="72.554255"
     inkscape:window-width="1920"
     inkscape:window-height="1137"
     inkscape:window-x="1912"
     inkscape:window-y="-8"
     inkscape:window-maximized="1"
     inkscape:current-layer="svg10" />
  <defs
     id="defs10">
    <linearGradient
       id="Farbverlauf_DVGW"
       x1="58.912025"
       y1="22.664558"
       x2="95.897934"
       y2="44.018379"
       gradientUnits="userSpaceOnUse">
      <stop
         offset="0"
         stop-color="#8bc400"
         id="stop1" />
      <stop
         offset=".152812826567126"
         stop-color="#5dba3e"
         id="stop2" />
      <stop
         offset=".304471927336012"
         stop-color="#35b275"
         id="stop3" />
      <stop
         offset=".434245529389188"
         stop-color="#18ac9d"
         id="stop4" />
      <stop
         offset=".537026206916182"
         stop-color="#06a9b6"
         id="stop5" />
      <stop
         offset=".6"
         stop-color="#00a8bf"
         id="stop6" />
      <stop
         offset=".673654872257017"
         stop-color="#009fb7"
         id="stop7" />
      <stop
         offset=".793746822829861"
         stop-color="#0186a2"
         id="stop8" />
      <stop
         offset=".944466330084644"
         stop-color="#045f80"
         id="stop9" />
      <stop
         offset="1"
         stop-color="#054f73"
         id="stop10" />
    </linearGradient>
  </defs>
  <g
     id="Markenzusatz"
     transform="translate(-14.110866,-14.173186)">
    <path
       id="S_C"
       d="M 39.591103,98.177492 V 98.5105 c 0,1.6084 0.735352,2.42285 2.207031,2.42285 1.338868,0 2.036133,-0.961912 2.036133,-1.923826 0,-1.386719 -0.716797,-1.997071 -1.923828,-2.348633 l -1.470703,-0.499024 c -1.961914,-0.740234 -2.810547,-1.738281 -2.810547,-3.625 0,-2.404296 1.678711,-3.736328 4.1875,-3.736328 3.451172,0 3.80957,2.108399 3.80957,3.477539 v 0.295899 h -2.15039 v -0.277344 c 0,-1.202148 -0.527344,-1.905273 -1.885742,-1.905273 -0.923829,0 -1.810547,0.499023 -1.810547,1.905273 0,1.12793 0.584961,1.701172 2.018554,2.237305 l 1.452149,0.517578 c 1.904297,0.666015 2.734375,1.665039 2.734375,3.496094 0,2.81055 -1.735352,3.97559 -4.451172,3.97559 -3.337891,0 -4.092773,-2.18165 -4.092773,-4.031254 v -0.314454 z m 19.629883,0.0918 c 0.320312,-0.517578 0.527344,-1.293945 0.527344,-2.015625 v -0.258789 h 1.697265 v 0.166992 c 0,0.720704 -0.245117,2.292969 -1.15039,3.587891 l 1.830078,2.514649 h -2.282227 l -0.811523,-1.12793 c -0.885742,0.79492 -1.866211,1.38672 -3.394531,1.38672 -3.111329,0 -3.959961,-2.23731 -3.959961,-3.643556 0,-1.460938 0.735351,-2.588867 1.885742,-3.458008 L 54.411416,94.79273 53.90165,94.053472 c -0.470703,-0.72168 -0.867187,-1.442383 -0.867187,-2.164063 0,-1.886718 1.395507,-2.829101 3.206054,-2.829101 1,0 2.960938,0.480469 2.960938,2.681641 0,1.238281 -0.678711,2.052734 -1.640625,2.773437 l -0.698242,0.5 z M 54.958291,96.38355 c -0.773438,0.610352 -1.245118,1.368164 -1.245118,2.348633 0,1.183594 1.018555,2.108397 2.282227,2.108397 0.905273,0 1.583984,-0.48145 2.09375,-1.017577 l -2.734375,-3.772461 z m 1.452148,-3.014648 c 0.47168,-0.44336 0.980469,-0.980469 0.980469,-1.701172 0,-0.794922 -0.47168,-1.239258 -1.282227,-1.239258 -0.546875,0 -1.263672,0.277344 -1.263672,1.146484 0,0.666016 0.415039,1.332032 0.791993,1.831055 l 0.301757,0.388672 z m 19.762695,4.161132 v 0.277344 c 0,2.385742 -1,4.715822 -4.149414,4.715822 -3.394531,0 -4.451172,-2.14551 -4.451172,-6.86133 0,-4.71582 1.056641,-6.861328 4.469727,-6.861328 3.829102,0 4.054688,2.75586 4.054688,4.142578 v 0.241211 h -2.149415 v -0.222656 c 0,-1.238281 -0.377929,-2.625976 -1.923828,-2.570312 -1.603515,0 -2.300781,0.961914 -2.300781,5.21582 0,4.25293 0.697266,5.326167 2.300781,5.326167 1.810547,0 1.999024,-1.942378 1.999024,-3.181636 v -0.22168 z M 99.411647,80.128664 H 14.110866 v 1.84252 h 85.300781 z"
       fill="#58585a"
       stroke-width="0" />
  </g>
  <g
     id="Wortmarke"
     transform="translate(-14.110866,-14.173186)">
    <path
       id="Wortmarke-2"
       d="M 15.896665,69.415489 C 15.404324,69.374823 14.993797,69.165687 14.66557,68.786144 14.337342,68.406601 14.173228,67.961218 14.173228,67.449028 V 48.823326 c 0,-0.511706 0.164114,-0.957573 0.492342,-1.337116 0.328227,-0.378575 0.738754,-0.58868 1.231095,-0.629829 1.600956,-0.16363 3.180612,-0.245929 4.740419,-0.245929 3.672953,0 6.504521,0.973548 8.495187,2.919676 1.989698,1.947096 2.985515,4.713309 2.985515,8.298638 0,3.893224 -0.995817,6.838558 -2.985515,8.836002 -1.990666,1.998412 -4.822234,2.996649 -8.495187,2.996649 -1.559807,0 -3.139463,-0.08133 -4.740419,-0.245928 z M 19.28254,51.159163 v 13.953543 c 0,0.184931 0.09247,0.297245 0.276912,0.338878 0.410526,0.08133 0.902868,0.121997 1.477508,0.121997 2.072481,0 3.606146,-0.603203 4.601479,-1.812514 0.995333,-1.20931 1.493,-3.186421 1.493,-5.932301 0,-2.458802 -0.502992,-4.261633 -1.508007,-5.409461 -1.005984,-1.147344 -2.534808,-1.721016 -4.586472,-1.721016 -0.57464,0 -1.066982,0.04115 -1.477508,0.122964 -0.184446,0.04115 -0.276912,0.153464 -0.276912,0.33791 z m 20.006389,16.535794 -6.217443,-19.11756 c -0.143781,-0.409558 -0.08714,-0.788618 0.169439,-1.137178 0.256579,-0.348076 0.600298,-0.522356 1.031157,-0.522356 h 2.062315 c 0.512674,0 0.974032,0.158789 1.385042,0.476366 0.410043,0.318061 0.677272,0.722294 0.800237,1.214151 l 4.032164,15.705543 c 0,0.02033 0.01017,0.03098 0.0305,0.03098 0.02033,0 0.03098,-0.01065 0.03098,-0.03098 L 46.76845,48.60838 c 0.123448,-0.491857 0.38971,-0.89609 0.800236,-1.214151 0.410527,-0.317577 0.871885,-0.476366 1.385043,-0.476366 h 1.93935 c 0.430859,0 0.774094,0.17428 1.031158,0.522356 0.256095,0.34856 0.312736,0.72762 0.168954,1.137178 l -6.217442,19.11756 c -0.143782,0.491857 -0.426018,0.890765 -0.846227,1.19866 -0.420693,0.306926 -0.898027,0.460874 -1.431034,0.460874 h -2.031815 c -0.513158,0 -0.979842,-0.153948 -1.400534,-0.460874 -0.420693,-0.307895 -0.713097,-0.706803 -0.87721,-1.19866 z m 25.331614,1.96646 c -3.447842,0 -6.207277,-1.01857 -8.280242,-3.057647 -2.072481,-2.039078 -3.108479,-4.861447 -3.108479,-8.467109 0,-3.627447 1.015665,-6.455142 3.047481,-8.483569 2.031331,-2.028426 4.882748,-3.04264 8.556185,-3.04264 1.518173,0 2.985999,0.122965 4.401541,0.368893 0.492826,0.08181 0.897543,0.322418 1.216088,0.722294 0.317577,0.399392 0.477334,0.855425 0.477334,1.367615 v 0.829767 c 0,0.430375 -0.175249,0.778935 -0.523809,1.045197 -0.34856,0.266261 -0.738754,0.34856 -1.169613,0.245928 -1.272245,-0.287078 -2.534807,-0.430375 -3.785751,-0.430375 -4.597122,0 -6.894715,2.458802 -6.894715,7.37689 0,2.458318 0.548982,4.302782 1.646947,5.531457 1.096997,1.229643 2.672295,1.844464 4.724927,1.844464 0.635155,0 1.281928,-0.08133 1.938383,-0.245928 0.18493,-0.04067 0.276911,-0.153948 0.276911,-0.33791 v -5.009585 c 0,-0.164598 -0.09198,-0.245928 -0.276911,-0.245928 h -2.862067 c -0.472493,0 -0.883019,-0.174281 -1.23158,-0.522841 -0.34856,-0.347592 -0.52284,-0.75715 -0.52284,-1.229643 v -0.460874 c 0,-0.47104 0.17428,-0.880598 0.52284,-1.229159 0.348561,-0.34856 0.759087,-0.52284 1.23158,-0.52284 h 6.370906 c 0.472493,0 0.87721,0.17428 1.216088,0.52284 0.338878,0.348561 0.508317,0.758119 0.508317,1.229159 v 9.190371 c 0,0.532523 -0.153947,1.008889 -0.461842,1.429097 -0.307895,0.420209 -0.707771,0.701962 -1.200597,0.845259 -1.846401,0.490889 -3.785751,0.736817 -5.817082,0.736817 z M 77.794182,67.633775 74.007463,48.639664 c -0.102632,-0.450224 -0.0048,-0.8501 0.292403,-1.19866 0.297245,-0.348076 0.671947,-0.522356 1.124107,-0.522356 h 1.785403 c 0.491857,0 0.933367,0.164114 1.322592,0.491857 0.390194,0.327744 0.61579,0.737302 0.677756,1.229159 l 2.093298,15.368117 c 0,0.02033 0.0097,0.03002 0.03002,0.03002 0.02033,0 0.03098,-0.0097 0.03098,-0.03002 l 1.908367,-15.368117 c 0.06197,-0.491857 0.276912,-0.901415 0.646773,-1.229159 0.368893,-0.327743 0.799752,-0.491857 1.292578,-0.491857 h 2.893049 c 0.492826,0 0.923685,0.164114 1.292578,0.491857 0.369861,0.327744 0.584807,0.737302 0.646773,1.229159 l 1.908367,15.368117 c 0,0.02033 0.0097,0.03002 0.03098,0.03002 0.01937,0 0.03002,-0.0097 0.03002,-0.03002 l 2.093298,-15.368117 c 0.06197,-0.491857 0.287562,-0.901415 0.676788,-1.229159 0.390193,-0.327743 0.831703,-0.491857 1.32356,-0.491857 h 1.662439 c 0.451192,0 0.820084,0.17428 1.107647,0.522356 0.287562,0.34856 0.390193,0.748436 0.307895,1.19866 l -3.785752,18.994111 c -0.102631,0.491858 -0.34856,0.902384 -0.738754,1.229643 -0.390194,0.328228 -0.841385,0.491858 -1.353575,0.491858 h -2.617107 c -0.491857,0 -0.928525,-0.16363 -1.308069,-0.491858 -0.379543,-0.327259 -0.600298,-0.737785 -0.661296,-1.229643 L 86.627279,52.266627 c 0,-0.02033 -0.01065,-0.03098 -0.03098,-0.03098 -0.02033,0 -0.03001,0.01065 -0.03001,0.03098 l -2.093297,15.367148 c -0.06197,0.491858 -0.282721,0.902384 -0.662265,1.229643 -0.379543,0.328228 -0.815243,0.491858 -1.308069,0.491858 H 79.88652 c -0.513158,0 -0.969191,-0.16363 -1.369067,-0.491858 -0.400844,-0.327259 -0.641932,-0.737785 -0.723263,-1.229643 z"
       stroke-width="0" />
  </g>
  <g
     id="Bildmarke"
     transform="translate(-14.110866,-14.173186)">
    <path
       id="Bildmarke-2"
       d="M 80.232992,18.929535 C 79.64007,17.471847 79.295586,15.14355 79.20724,14.491517 c -0.0152,-0.112158 -0.09173,-0.336409 -0.365636,-0.317168 -0.276268,0.01941 -0.310516,0.278551 -0.305015,0.354875 0.591841,7.343909 -2.243572,18.753425 5.792564,24.118369 4.068986,2.716932 7.959372,2.705375 12.226558,2.743842 0.812344,0.0073 1.476607,-0.648817 1.476607,-1.461193 V 28.944175 c 0,-0.820623 -0.676985,-1.481877 -1.497219,-1.456619 -7.133891,0.219674 -13.596252,-1.897051 -16.302107,-8.558021 z m -23.22314,8.558021 c -0.820234,-0.02526 -1.497219,0.635996 -1.497219,1.456619 v 10.986067 c 0,0.812376 0.664263,1.468516 1.476607,1.461193 4.267186,-0.03847 8.157572,-0.02691 12.226558,-2.743842 8.036136,-5.364944 5.200724,-16.77446 5.792564,-24.118369 0.0055,-0.07632 -0.02875,-0.335467 -0.305014,-0.354875 -0.273907,-0.01924 -0.35044,0.20501 -0.365637,0.317168 -0.08835,0.652033 -0.43283,2.98033 -1.025752,4.438018 -2.705855,6.66097 -9.168216,8.777695 -16.302107,8.558021 z"
       fill="url(#Farbverlauf_DVGW)"
       stroke-width="0"
       style="fill:url(#Farbverlauf_DVGW)" />
  </g>
</svg>
