<?xml version="1.0" encoding="UTF-8" standalone="no"?>
<svg
   id="Wortbildmarke"
   width="30.000002mm"
   height="30mm"
   viewBox="0 0 85.039376 85.03937"
   version="1.1"
   sodipodi:docname="Logo DVGW RGB.svg"
   inkscape:version="1.3.2 (091e20e, 2023-11-25, custom)"
   xmlns:inkscape="http://www.inkscape.org/namespaces/inkscape"
   xmlns:sodipodi="http://sodipodi.sourceforge.net/DTD/sodipodi-0.dtd"
   xmlns="http://www.w3.org/2000/svg"
   xmlns:svg="http://www.w3.org/2000/svg">
  <sodipodi:namedview
     id="namedview10"
     pagecolor="#ffffff"
     bordercolor="#666666"
     borderopacity="1.0"
     inkscape:showpageshadow="2"
     inkscape:pageopacity="0.0"
     inkscape:pagecheckerboard="0"
     inkscape:deskcolor="#d1d1d1"
     inkscape:document-units="mm"
     inkscape:zoom="6.7960119"
     inkscape:cx="56.724444"
     inkscape:cy="35.535547"
     inkscape:window-width="1920"
     inkscape:window-height="1137"
     inkscape:window-x="1912"
     inkscape:window-y="-8"
     inkscape:window-maximized="1"
     inkscape:current-layer="Wortbildmarke" />
  <defs
     id="defs10">
    <linearGradient
       id="Farbverlauf_DVGW"
       x1="58.912025"
       y1="22.664558"
       x2="95.897934"
       y2="44.018379"
       gradientUnits="userSpaceOnUse"
       gradientTransform="translate(-14.283586,-5.565196)">
      <stop
         offset="0"
         stop-color="#8bc400"
         id="stop1" />
      <stop
         offset=".152812826567126"
         stop-color="#5dba3e"
         id="stop2" />
      <stop
         offset=".304471927336012"
         stop-color="#35b275"
         id="stop3" />
      <stop
         offset=".434245529389188"
         stop-color="#18ac9d"
         id="stop4" />
      <stop
         offset=".537026206916182"
         stop-color="#06a9b6"
         id="stop5" />
      <stop
         offset=".6"
         stop-color="#00a8bf"
         id="stop6" />
      <stop
         offset=".673654872257017"
         stop-color="#009fb7"
         id="stop7" />
      <stop
         offset=".793746822829861"
         stop-color="#0186a2"
         id="stop8" />
      <stop
         offset=".944466330084644"
         stop-color="#045f80"
         id="stop9" />
      <stop
         offset="1"
         stop-color="#054f73"
         id="stop10" />
    </linearGradient>
  </defs>
  <path
     id="Wortmarke"
     d="m 1.6130782,63.850293 c -0.492341,-0.04067 -0.90286804,-0.249802 -1.23109504,-0.629345 -0.328228,-0.379543 -0.492342,-0.824926 -0.492342,-1.337116 V 43.25813 c 0,-0.511706 0.164114,-0.957573 0.492342,-1.337116 0.328227,-0.378575 0.73875404,-0.58868 1.23109504,-0.629829 1.600956,-0.16363 3.180612,-0.245929 4.740419,-0.245929 3.6729528,0 6.5045208,0.973548 8.4951868,2.919676 1.989698,1.947096 2.985515,4.713309 2.985515,8.298638 0,3.893224 -0.995817,6.838558 -2.985515,8.836002 -1.990666,1.998412 -4.822234,2.996649 -8.4951868,2.996649 -1.559807,0 -3.139463,-0.08133 -4.740419,-0.245928 z M 4.9989532,45.593967 V 59.54751 c 0,0.184931 0.09247,0.297245 0.276912,0.338878 0.410526,0.08133 0.902868,0.121997 1.477508,0.121997 2.072481,0 3.6061458,-0.603203 4.6014788,-1.812514 0.995333,-1.20931 1.493,-3.186421 1.493,-5.932301 0,-2.458802 -0.502992,-4.261633 -1.508007,-5.409461 -1.005984,-1.147344 -2.5348078,-1.721016 -4.5864718,-1.721016 -0.57464,0 -1.066982,0.04115 -1.477508,0.122964 -0.184446,0.04115 -0.276912,0.153464 -0.276912,0.33791 z M 25.005342,62.129761 18.787899,43.012201 c -0.143781,-0.409558 -0.08714,-0.788618 0.169439,-1.137178 0.256579,-0.348076 0.600298,-0.522356 1.031157,-0.522356 h 2.062315 c 0.512674,0 0.974032,0.158789 1.385042,0.476366 0.410043,0.318061 0.677272,0.722294 0.800237,1.214151 l 4.032164,15.705543 c 0,0.02033 0.01017,0.03098 0.0305,0.03098 0.02033,0 0.03098,-0.01065 0.03098,-0.03098 l 4.15513,-15.705543 c 0.123448,-0.491857 0.38971,-0.89609 0.800236,-1.214151 0.410527,-0.317577 0.871885,-0.476366 1.385043,-0.476366 h 1.93935 c 0.430859,0 0.774094,0.17428 1.031158,0.522356 0.256095,0.34856 0.312736,0.72762 0.168954,1.137178 l -6.217442,19.11756 c -0.143782,0.491857 -0.426018,0.890765 -0.846227,1.19866 -0.420693,0.306926 -0.898027,0.460874 -1.431034,0.460874 h -2.031815 c -0.513158,0 -0.979842,-0.153948 -1.400534,-0.460874 -0.420693,-0.307895 -0.713097,-0.706803 -0.87721,-1.19866 z m 25.331614,1.96646 c -3.447842,0 -6.207277,-1.01857 -8.280242,-3.057647 -2.072481,-2.039078 -3.108479,-4.861447 -3.108479,-8.467109 0,-3.627447 1.015665,-6.455142 3.047481,-8.483569 2.031331,-2.028426 4.882748,-3.04264 8.556185,-3.04264 1.518173,0 2.985999,0.122965 4.401541,0.368893 0.492826,0.08181 0.897543,0.322418 1.216088,0.722294 0.317577,0.399392 0.477334,0.855425 0.477334,1.367615 v 0.829767 c 0,0.430375 -0.175249,0.778935 -0.523809,1.045197 -0.34856,0.266261 -0.738754,0.34856 -1.169613,0.245928 -1.272245,-0.287078 -2.534807,-0.430375 -3.785751,-0.430375 -4.597122,0 -6.894715,2.458802 -6.894715,7.37689 0,2.458318 0.548982,4.302782 1.646947,5.531457 1.096997,1.229643 2.672295,1.844464 4.724927,1.844464 0.635155,0 1.281928,-0.08133 1.938383,-0.245928 0.18493,-0.04067 0.276911,-0.153948 0.276911,-0.33791 v -5.009585 c 0,-0.164598 -0.09198,-0.245928 -0.276911,-0.245928 h -2.862067 c -0.472493,0 -0.883019,-0.174281 -1.23158,-0.522841 -0.34856,-0.347592 -0.52284,-0.75715 -0.52284,-1.229643 v -0.460874 c 0,-0.47104 0.17428,-0.880598 0.52284,-1.229159 0.348561,-0.34856 0.759087,-0.52284 1.23158,-0.52284 h 6.370906 c 0.472493,0 0.87721,0.17428 1.216088,0.52284 0.338878,0.348561 0.508317,0.758119 0.508317,1.229159 v 9.190371 c 0,0.532523 -0.153947,1.008889 -0.461842,1.429097 -0.307895,0.420209 -0.707771,0.701962 -1.200597,0.845259 -1.846401,0.490889 -3.785751,0.736817 -5.817082,0.736817 z M 63.510595,62.068579 59.723876,43.074468 c -0.102632,-0.450224 -0.0048,-0.8501 0.292403,-1.19866 0.297245,-0.348076 0.671947,-0.522356 1.124107,-0.522356 h 1.785403 c 0.491857,0 0.933367,0.164114 1.322592,0.491857 0.390194,0.327744 0.61579,0.737302 0.677756,1.229159 l 2.093298,15.368117 c 0,0.02033 0.0097,0.03002 0.03002,0.03002 0.02033,0 0.03098,-0.0097 0.03098,-0.03002 l 1.908367,-15.368117 c 0.06197,-0.491857 0.276912,-0.901415 0.646773,-1.229159 0.368893,-0.327743 0.799752,-0.491857 1.292578,-0.491857 h 2.893049 c 0.492826,0 0.923685,0.164114 1.292578,0.491857 0.369861,0.327744 0.584807,0.737302 0.646773,1.229159 l 1.908367,15.368117 c 0,0.02033 0.0097,0.03002 0.03098,0.03002 0.01937,0 0.03002,-0.0097 0.03002,-0.03002 l 2.093298,-15.368117 c 0.06197,-0.491857 0.287562,-0.901415 0.676788,-1.229159 0.390193,-0.327743 0.831703,-0.491857 1.32356,-0.491857 h 1.662439 c 0.451192,0 0.820084,0.17428 1.107647,0.522356 0.287562,0.34856 0.390193,0.748436 0.307895,1.19866 l -3.785752,18.994111 c -0.102631,0.491858 -0.34856,0.902384 -0.738754,1.229643 -0.390194,0.328228 -0.841385,0.491858 -1.353575,0.491858 h -2.617107 c -0.491857,0 -0.928525,-0.16363 -1.308069,-0.491858 -0.379543,-0.327259 -0.600298,-0.737785 -0.661296,-1.229643 L 72.343692,46.701431 c 0,-0.02033 -0.01065,-0.03098 -0.03098,-0.03098 -0.02033,0 -0.03001,0.01065 -0.03001,0.03098 l -2.093297,15.367148 c -0.06197,0.491858 -0.282721,0.902384 -0.662265,1.229643 -0.379543,0.328228 -0.815243,0.491858 -1.308069,0.491858 h -2.616138 c -0.513158,0 -0.969191,-0.16363 -1.369067,-0.491858 -0.400844,-0.327259 -0.641932,-0.737785 -0.723263,-1.229643 z"
     stroke-width="0" />
  <path
     id="Bildmarke"
     d="m 65.949405,13.364339 c -0.592922,-1.457688 -0.937406,-3.785985 -1.025752,-4.438018 -0.0152,-0.112158 -0.09173,-0.336409 -0.365636,-0.317168 -0.276268,0.01941 -0.310516,0.278551 -0.305015,0.354875 0.591841,7.343909 -2.243572,18.753425 5.792564,24.118369 4.068986,2.716932 7.959372,2.705375 12.226558,2.743842 0.812344,0.0073 1.476607,-0.648817 1.476607,-1.461193 V 23.378979 c 0,-0.820623 -0.676985,-1.481877 -1.497219,-1.456619 -7.133891,0.219674 -13.596252,-1.897051 -16.302107,-8.558021 z m -23.22314,8.558021 c -0.820234,-0.02526 -1.497219,0.635996 -1.497219,1.456619 v 10.986067 c 0,0.812376 0.664263,1.468516 1.476607,1.461193 4.267186,-0.03847 8.157572,-0.02691 12.226558,-2.743842 8.036136,-5.364944 5.200724,-16.77446 5.792564,-24.118369 0.0055,-0.07632 -0.02875,-0.335467 -0.305014,-0.354875 -0.273907,-0.01924 -0.35044,0.20501 -0.365637,0.317168 -0.08835,0.652033 -0.43283,2.98033 -1.025752,4.438018 -2.705855,6.66097 -9.168216,8.777695 -16.302107,8.558021 z"
     fill="url(#Farbverlauf_DVGW)"
     stroke-width="0"
     style="fill:url(#Farbverlauf_DVGW)" />
</svg>
