<?xml version="1.0" encoding="UTF-8"?>
<!DOCTYPE svg PUBLIC "-//W3C//DTD SVG 1.1//EN" "http://www.w3.org/Graphics/SVG/1.1/DTD/svg11.dtd">
<svg version="1.2" width="147mm" height="34mm" viewBox="0 0 14700 3400" preserveAspectRatio="xMidYMid" fill-rule="evenodd" stroke-width="28.222" stroke-linejoin="round" xmlns="http://www.w3.org/2000/svg" xmlns:ooo="http://xml.openoffice.org/svg/export" xmlns:xlink="http://www.w3.org/1999/xlink" xmlns:presentation="http://sun.com/xmlns/staroffice/presentation" xmlns:smil="http://www.w3.org/2001/SMIL20/" xmlns:anim="urn:oasis:names:tc:opendocument:xmlns:animation:1.0" xml:space="preserve">
 <defs class="ClipPathGroup">
  <clipPath id="presentation_clip_path" clipPathUnits="userSpaceOnUse">
   <rect x="0" y="0" width="14700" height="3400"/>
  </clipPath>
  <clipPath id="presentation_clip_path_shrink" clipPathUnits="userSpaceOnUse">
   <rect x="14" y="3" width="14671" height="3394"/>
  </clipPath>
 </defs>
 <defs class="TextShapeIndex">
  <g ooo:slide="id1" ooo:id-list="id3 id4 id5 id6 id7 id8 id9"/>
 </defs>
 <defs class="EmbeddedBulletChars">
  <g id="bullet-char-template-57356" transform="scale(0.00048828125,-0.00048828125)">
   <path d="M 580,1141 L 1163,571 580,0 -4,571 580,1141 Z"/>
  </g>
  <g id="bullet-char-template-57354" transform="scale(0.00048828125,-0.00048828125)">
   <path d="M 8,1128 L 1137,1128 1137,0 8,0 8,1128 Z"/>
  </g>
  <g id="bullet-char-template-10146" transform="scale(0.00048828125,-0.00048828125)">
   <path d="M 174,0 L 602,739 174,1481 1456,739 174,0 Z M 1358,739 L 309,1346 659,739 1358,739 Z"/>
  </g>
  <g id="bullet-char-template-10132" transform="scale(0.00048828125,-0.00048828125)">
   <path d="M 2015,739 L 1276,0 717,0 1260,543 174,543 174,936 1260,936 717,1481 1274,1481 2015,739 Z"/>
  </g>
  <g id="bullet-char-template-10007" transform="scale(0.00048828125,-0.00048828125)">
   <path d="M 0,-2 C -7,14 -16,27 -25,37 L 356,567 C 262,823 215,952 215,954 215,979 228,992 255,992 264,992 276,990 289,987 310,991 331,999 354,1012 L 381,999 492,748 772,1049 836,1024 860,1049 C 881,1039 901,1025 922,1006 886,937 835,863 770,784 769,783 710,716 594,584 L 774,223 C 774,196 753,168 711,139 L 727,119 C 717,90 699,76 672,76 641,76 570,178 457,381 L 164,-76 C 142,-110 111,-127 72,-127 30,-127 9,-110 8,-76 1,-67 -2,-52 -2,-32 -2,-23 -1,-13 0,-2 Z"/>
  </g>
  <g id="bullet-char-template-10004" transform="scale(0.00048828125,-0.00048828125)">
   <path d="M 285,-33 C 182,-33 111,30 74,156 52,228 41,333 41,471 41,549 55,616 82,672 116,743 169,778 240,778 293,778 328,747 346,684 L 369,508 C 377,444 397,411 428,410 L 1163,1116 C 1174,1127 1196,1133 1229,1133 1271,1133 1292,1118 1292,1087 L 1292,965 C 1292,929 1282,901 1262,881 L 442,47 C 390,-6 338,-33 285,-33 Z"/>
  </g>
  <g id="bullet-char-template-9679" transform="scale(0.00048828125,-0.00048828125)">
   <path d="M 813,0 C 632,0 489,54 383,161 276,268 223,411 223,592 223,773 276,916 383,1023 489,1130 632,1184 813,1184 992,1184 1136,1130 1245,1023 1353,916 1407,772 1407,592 1407,412 1353,268 1245,161 1136,54 992,0 813,0 Z"/>
  </g>
  <g id="bullet-char-template-8226" transform="scale(0.00048828125,-0.00048828125)">
   <path d="M 346,457 C 273,457 209,483 155,535 101,586 74,649 74,723 74,796 101,859 155,911 209,963 273,989 346,989 419,989 480,963 531,910 582,859 608,796 608,723 608,648 583,586 532,535 482,483 420,457 346,457 Z"/>
  </g>
  <g id="bullet-char-template-8211" transform="scale(0.00048828125,-0.00048828125)">
   <path d="M -4,459 L 1135,459 1135,606 -4,606 -4,459 Z"/>
  </g>
  <g id="bullet-char-template-61548" transform="scale(0.00048828125,-0.00048828125)">
   <path d="M 173,740 C 173,903 231,1043 346,1159 462,1274 601,1332 765,1332 928,1332 1067,1274 1183,1159 1299,1043 1357,903 1357,740 1357,577 1299,437 1183,322 1067,206 928,148 765,148 601,148 462,206 346,322 231,437 173,577 173,740 Z"/>
  </g>
 </defs>
 <defs class="TextEmbeddedBitmaps"/>
 <g>
  <g id="id2" class="Master_Slide">
   <g id="bg-id2" class="Background"/>
   <g id="bo-id2" class="BackgroundObjects"/>
  </g>
 </g>
 <g class="SlideGroup">
  <g>
   <g id="container-id1">
    <g id="id1" class="Slide" clip-path="url(#presentation_clip_path)">
     <g class="Page">
      <g class="com.sun.star.drawing.ClosedBezierShape">
       <g id="id3">
        <rect class="BoundingBox" stroke="none" fill="none" x="3100" y="500" width="11501" height="2402"/>
        <path fill="rgb(31,146,219)" stroke="none" d="M 3300,2700 L 9000,2700 9000,700 3300,700 3300,2700 Z M 9612,1102 L 9612,2062 9313,2062 9313,2239 10117,2239 10117,2062 9845,2062 9845,925 9346,925 9346,1102 9612,1102 Z M 11204,1759 C 11204,1679 11194,1610 11174,1549 11154,1488 11125,1438 11086,1397 11047,1356 11002,1325 10946,1304 10890,1283 10827,1273 10757,1273 10684,1273 10620,1285 10562,1309 10504,1333 10455,1366 10415,1410 10375,1454 10344,1506 10323,1567 10302,1628 10291,1697 10291,1772 10291,1853 10301,1924 10322,1985 10343,2046 10372,2097 10410,2138 10448,2179 10495,2209 10550,2229 10606,2250 10668,2260 10738,2260 10812,2260 10878,2248 10935,2224 10993,2200 11041,2165 11081,2121 11121,2077 11151,2025 11172,1963 11193,1901 11204,1833 11204,1759 Z M 10968,1764 C 10968,1806 10964,1845 10955,1882 10946,1919 10933,1951 10916,1978 10899,2005 10876,2026 10848,2041 10820,2056 10787,2064 10749,2064 10681,2064 10627,2039 10587,1989 10547,1939 10527,1865 10527,1766 10527,1725 10531,1687 10540,1651 10549,1615 10561,1583 10579,1556 10597,1529 10620,1508 10648,1492 10676,1476 10710,1469 10749,1469 10821,1469 10876,1494 10913,1543 10950,1592 10968,1666 10968,1764 Z M 12108,1460 L 12256,1460 12256,1294 11928,1294 C 11907,1287 11884,1282 11858,1279 11832,1276 11806,1275 11778,1275 11723,1275 11674,1282 11627,1297 11580,1312 11541,1333 11507,1361 11473,1389 11447,1424 11428,1465 11409,1506 11400,1553 11400,1606 11400,1655 11408,1695 11423,1728 11438,1761 11457,1789 11480,1812 11467,1826 11455,1841 11443,1857 11431,1873 11421,1888 11412,1905 11403,1922 11396,1940 11390,1958 11384,1976 11382,1996 11382,2017 11382,2048 11390,2077 11406,2105 11422,2133 11444,2154 11474,2172 11452,2188 11432,2204 11415,2220 11398,2236 11384,2253 11373,2270 11362,2287 11354,2305 11348,2323 11343,2342 11340,2362 11340,2384 11340,2420 11348,2453 11365,2483 11382,2513 11408,2539 11443,2561 11478,2583 11523,2600 11577,2612 11632,2624 11698,2630 11774,2630 11853,2630 11922,2622 11981,2605 12041,2588 12091,2565 12131,2536 12171,2507 12200,2474 12220,2435 12240,2395 12250,2354 12250,2310 12250,2271 12242,2237 12226,2207 12210,2177 12188,2151 12159,2130 12130,2109 12096,2093 12055,2081 12014,2069 11969,2063 11918,2062 L 11695,2054 C 11678,2053 11664,2050 11650,2045 11636,2040 11625,2034 11615,2026 11605,2018 11598,2010 11593,2000 11588,1990 11586,1980 11586,1970 11586,1954 11590,1939 11597,1926 11604,1913 11613,1902 11623,1891 11638,1900 11659,1907 11687,1914 11715,1921 11745,1924 11778,1924 11834,1924 11885,1917 11931,1903 11977,1889 12017,1869 12050,1841 12083,1813 12109,1780 12128,1740 12147,1700 12155,1653 12155,1600 12155,1576 12151,1552 12144,1528 12137,1504 12125,1482 12108,1460 Z M 11573,2365 C 11573,2352 11574,2340 11576,2329 11578,2318 11582,2307 11589,2296 11596,2285 11604,2274 11616,2263 11628,2252 11642,2240 11660,2227 L 11860,2231 C 11883,2232 11904,2235 11923,2239 11942,2243 11958,2249 11972,2257 11986,2265 11996,2274 12004,2286 12012,2298 12016,2311 12016,2328 12016,2347 12012,2365 12004,2382 11996,2400 11983,2415 11964,2428 11945,2441 11921,2452 11892,2460 11863,2468 11827,2472 11784,2472 11717,2472 11665,2463 11628,2446 11591,2428 11573,2401 11573,2365 Z M 11610,1606 C 11610,1583 11613,1561 11620,1540 11627,1519 11637,1501 11651,1485 11665,1469 11682,1456 11703,1447 11724,1438 11748,1433 11776,1433 11829,1433 11870,1447 11900,1477 11930,1507 11944,1548 11944,1601 11944,1623 11941,1644 11934,1665 11927,1686 11917,1703 11903,1719 11889,1735 11872,1747 11851,1756 11830,1765 11806,1770 11778,1770 11725,1770 11684,1756 11654,1726 11624,1696 11610,1656 11610,1606 Z M 13001,1035 C 13001,1014 12998,995 12990,977 12982,959 12973,944 12959,930 12946,917 12930,906 12912,898 12894,890 12874,886 12853,886 12832,886 12812,890 12794,898 12776,906 12760,916 12746,930 12732,944 12723,959 12715,977 12707,995 12704,1014 12704,1035 12704,1055 12707,1075 12715,1093 12723,1111 12732,1126 12746,1140 12760,1154 12776,1163 12794,1171 12812,1179 12832,1183 12853,1183 12874,1183 12894,1179 12912,1171 12930,1163 12945,1154 12959,1140 12973,1126 12982,1111 12990,1093 12998,1075 13001,1055 13001,1035 Z M 12749,1471 L 12749,2062 12450,2062 12450,2239 13254,2239 13254,2062 12982,2062 12982,1294 12482,1294 12482,1471 12749,1471 Z M 14256,2203 L 14256,2001 C 14237,2009 14217,2016 14196,2023 14175,2030 14153,2036 14131,2042 14109,2048 14087,2051 14065,2054 14043,2057 14022,2058 14002,2058 13961,2058 13924,2051 13890,2038 13856,2025 13828,2005 13804,1980 13780,1955 13762,1924 13749,1888 13736,1852 13729,1812 13729,1766 13729,1723 13735,1684 13747,1647 13759,1610 13777,1580 13800,1554 13823,1528 13850,1509 13884,1494 13918,1479 13956,1473 13998,1473 14038,1473 14081,1478 14126,1489 14171,1500 14213,1514 14251,1533 L 14251,1313 C 14217,1303 14180,1296 14138,1289 14096,1282 14044,1279 13983,1279 13908,1279 13840,1290 13779,1314 13718,1338 13666,1371 13622,1415 13578,1459 13545,1510 13521,1572 13497,1634 13485,1702 13485,1778 13485,1856 13496,1924 13518,1984 13540,2044 13572,2094 13614,2134 13656,2174 13706,2205 13765,2225 13825,2246 13892,2256 13967,2256 14019,2256 14069,2252 14117,2243 14165,2234 14211,2221 14256,2203 Z M 3100,2900 L 3100,500 14600,500 14600,2900 3100,2900 Z"/>
       </g>
      </g>
      <g class="com.sun.star.drawing.ClosedBezierShape">
       <g id="id4">
        <rect class="BoundingBox" stroke="none" fill="none" x="51" y="99" width="2385" height="3202"/>
        <path fill="rgb(31,146,219)" stroke="none" d="M 1893,861 C 1877,861 1864,858 1849,850 1835,842 1827,833 1818,819 1809,805 1807,791 1807,776 1807,760 1809,747 1818,733 1827,719 1835,710 1849,702 1864,694 1878,690 1893,690 1910,690 1922,694 1936,702 1951,710 1960,719 1968,733 1976,747 1980,760 1980,776 1980,791 1976,805 1968,819 1960,833 1951,842 1936,850 1922,858 1909,861 1893,861 Z M 273,2955 C 136,2951 51,3032 51,3127 51,3223 130,3300 226,3300 L 2241,3300 C 2337,3300 2415,3223 2415,3127 2415,3032 2345,2959 2237,2955 2129,2952 410,2960 273,2955 Z M 2317,1479 C 2352,1435 2382,1379 2407,1339 2432,1299 2446,1268 2422,1227 2397,1186 2095,749 1932,511 1961,402 2018,186 2018,186 2024,167 2015,147 1999,136 1981,126 1960,129 1944,141 1944,141 1742,237 1642,285 1183,-81 446,110 178,734 -90,1359 367,2039 314,2493 L 2113,2493 C 2111,1749 1291,1507 1274,1144 1337,1307 1623,1375 1723,1239 1830,1304 2134,1478 2182,1504 2229,1531 2282,1524 2317,1479 Z M 2199,2834 C 2263,2834 2315,2782 2315,2719 2315,2655 2263,2603 2199,2603 L 275,2603 C 211,2603 159,2655 159,2719 159,2782 211,2834 275,2834 L 2199,2834 Z"/>
       </g>
      </g>
      <g class="com.sun.star.drawing.ClosedBezierShape">
       <g id="id5">
        <rect class="BoundingBox" stroke="none" fill="none" x="3605" y="992" width="855" height="1269"/>
        <path fill="rgb(31,146,219)" stroke="none" d="M 4459,2229 C 4418,2238 4377,2246 4335,2252 4294,2257 4254,2260 4217,2260 4155,2260 4102,2253 4057,2240 4012,2227 3975,2208 3945,2181 3916,2154 3894,2120 3880,2079 3866,2038 3859,1989 3859,1932 L 3859,1471 3605,1471 3605,1294 3859,1294 3859,1052 4092,992 4092,1294 4459,1294 4459,1471 4092,1471 4092,1915 C 4092,1969 4104,2010 4129,2038 4154,2065 4195,2079 4254,2079 4291,2079 4327,2076 4362,2070 4398,2063 4430,2056 4459,2048 L 4459,2229 Z"/>
       </g>
      </g>
      <g class="com.sun.star.drawing.ClosedBezierShape">
       <g id="id6">
        <rect class="BoundingBox" stroke="none" fill="none" x="4691" y="1273" width="859" height="988"/>
        <path fill="rgb(31,146,219)" stroke="none" d="M 5549,1694 C 5549,1709 5549,1729 5548,1754 5547,1779 5545,1802 5543,1824 L 4922,1824 C 4922,1866 4928,1902 4941,1934 4954,1965 4972,1992 4995,2013 5018,2035 5046,2051 5079,2062 5111,2073 5147,2079 5187,2079 5233,2079 5282,2075 5335,2068 5387,2061 5442,2049 5498,2033 L 5498,2213 C 5474,2220 5447,2226 5419,2232 5390,2237 5361,2242 5331,2247 5302,2251 5272,2255 5241,2257 5211,2259 5181,2260 5153,2260 5081,2260 5016,2250 4959,2229 4902,2209 4854,2179 4814,2139 4774,2099 4744,2049 4723,1990 4702,1931 4691,1863 4691,1786 4691,1709 4702,1639 4723,1576 4744,1513 4774,1459 4812,1414 4850,1369 4897,1334 4952,1310 5007,1285 5068,1273 5136,1273 5203,1273 5262,1283 5314,1304 5365,1325 5408,1354 5443,1391 5478,1428 5504,1473 5522,1524 5540,1576 5549,1632 5549,1694 Z M 5318,1661 C 5319,1624 5314,1591 5304,1564 5294,1536 5281,1513 5264,1495 5247,1477 5227,1464 5204,1455 5182,1446 5157,1442 5131,1442 5074,1442 5027,1461 4991,1499 4954,1538 4933,1591 4926,1661 L 5318,1661 Z"/>
       </g>
      </g>
      <g class="com.sun.star.drawing.ClosedBezierShape">
       <g id="id7">
        <rect class="BoundingBox" stroke="none" fill="none" x="5768" y="1294" width="793" height="967"/>
        <path fill="rgb(31,146,219)" stroke="none" d="M 5995,1294 L 5995,1910 C 5995,1961 6005,2000 6024,2026 6043,2053 6072,2066 6111,2066 6149,2066 6186,2050 6221,2019 6256,1988 6293,1945 6332,1892 L 6332,1294 6559,1294 6559,2239 6363,2239 6357,2099 C 6337,2124 6317,2146 6297,2165 6276,2185 6254,2202 6230,2216 6206,2230 6180,2241 6152,2248 6124,2256 6092,2260 6058,2260 6010,2260 5968,2252 5931,2236 5895,2220 5865,2198 5841,2169 5816,2140 5798,2105 5786,2064 5774,2024 5768,1978 5768,1928 L 5768,1294 5995,1294 Z"/>
       </g>
      </g>
      <g class="com.sun.star.drawing.ClosedBezierShape">
       <g id="id8">
        <rect class="BoundingBox" stroke="none" fill="none" x="6742" y="992" width="856" height="1269"/>
        <path fill="rgb(31,146,219)" stroke="none" d="M 7596,2229 C 7555,2238 7514,2246 7472,2252 7431,2257 7391,2260 7354,2260 7292,2260 7239,2253 7194,2240 7149,2227 7112,2208 7082,2181 7053,2154 7031,2120 7017,2079 7003,2038 6996,1989 6996,1932 L 6996,1471 6742,1471 6742,1294 6996,1294 6996,1052 7229,992 7229,1294 7596,1294 7596,1471 7229,1471 7229,1915 C 7229,1969 7241,2010 7266,2038 7291,2065 7332,2079 7391,2079 7428,2079 7464,2076 7499,2070 7535,2063 7567,2056 7596,2048 L 7596,2229 Z"/>
       </g>
      </g>
      <g class="com.sun.star.drawing.ClosedBezierShape">
       <g id="id9">
        <rect class="BoundingBox" stroke="none" fill="none" x="7799" y="1273" width="915" height="988"/>
        <path fill="rgb(31,146,219)" stroke="none" d="M 8713,1759 C 8713,1833 8702,1901 8681,1963 8660,2024 8630,2077 8590,2121 8551,2165 8502,2200 8444,2224 8387,2248 8321,2260 8247,2260 8177,2260 8115,2250 8059,2229 8004,2209 7957,2178 7919,2138 7881,2097 7851,2046 7831,1985 7810,1924 7800,1853 7800,1772 7800,1697 7811,1628 7832,1567 7853,1506 7884,1453 7924,1410 7964,1366 8013,1333 8071,1309 8128,1285 8193,1273 8266,1273 8336,1273 8399,1283 8455,1304 8510,1325 8556,1356 8595,1397 8633,1438 8663,1488 8683,1549 8703,1609 8713,1679 8713,1759 Z M 8477,1764 C 8477,1666 8459,1592 8422,1543 8385,1494 8330,1469 8258,1469 8219,1469 8185,1477 8157,1492 8129,1508 8106,1529 8088,1556 8070,1583 8057,1615 8049,1651 8040,1687 8036,1725 8036,1766 8036,1865 8056,1939 8096,1989 8135,2039 8190,2064 8258,2064 8296,2064 8329,2056 8357,2041 8385,2026 8408,2005 8425,1978 8442,1951 8455,1919 8464,1882 8473,1846 8477,1806 8477,1764 Z"/>
       </g>
      </g>
     </g>
    </g>
   </g>
  </g>
 </g>
</svg>